inDegrees=no
num_controls=7
num_derivatives=13
num_iterations=197
num_multipliers=7
num_parameters=0
num_slacks=7
num_states=26
objective=5.039298
objective_accelerations=0.446277
objective_balance=0.044106
objective_effort=0.244718
objective_height=4.219467
objective_ligament=0.084730
solver_duration=2187.387910
status=Solve_Succeeded
success=true
DataType=double
version=3
OpenSimVersion=4.4-2022-07-23-0e9fedc
endheader
time	/jointset/ground_pelvis/pelvis_tilt/value	/jointset/ground_pelvis/pelvis_tx/value	/jointset/ground_pelvis/pelvis_ty/value	/jointset/hip_l/hip_flexion_l/value	/jointset/hip_l/hip_adduction_l/value	/jointset/hip_l/hip_rotation_l/value	/jointset/back/lumbar_extension/value	/jointset/patellofemoral_l/patellar_flexion_l/value	/jointset/knee_l/knee_flexion_l/value	/jointset/knee_l/knee_adduction_l/value	/jointset/knee_l/knee_rotation_l/value	/jointset/ankle_l/ankle_angle_l/value	/jointset/subtalar_l/subtalar_angle_l/value	/jointset/ground_pelvis/pelvis_tilt/speed	/jointset/ground_pelvis/pelvis_tx/speed	/jointset/ground_pelvis/pelvis_ty/speed	/jointset/hip_l/hip_flexion_l/speed	/jointset/hip_l/hip_adduction_l/speed	/jointset/hip_l/hip_rotation_l/speed	/jointset/back/lumbar_extension/speed	/jointset/patellofemoral_l/patellar_flexion_l/speed	/jointset/knee_l/knee_flexion_l/speed	/jointset/knee_l/knee_adduction_l/speed	/jointset/knee_l/knee_rotation_l/speed	/jointset/ankle_l/ankle_angle_l/speed	/jointset/subtalar_l/subtalar_angle_l/speed	/forceset/tau_hip_flexion_l	/forceset/tau_hip_adduction_l	/forceset/tau_hip_rotation_l	/forceset/tau_knee_flexion_l	/forceset/tau_ankle_angle_l	/forceset/tau_subtalar_angle_l	/forceset/tau_lumbar_extension	lambda_cid13_p0	lambda_cid13_p1	lambda_cid13_p2	lambda_cid13_p3	lambda_cid13_p4	lambda_cid13_p5	lambda_cid14_p0	/jointset/ground_pelvis/pelvis_tilt/accel	/jointset/ground_pelvis/pelvis_tx/accel	/jointset/ground_pelvis/pelvis_ty/accel	/jointset/hip_l/hip_flexion_l/accel	/jointset/hip_l/hip_adduction_l/accel	/jointset/hip_l/hip_rotation_l/accel	/jointset/back/lumbar_extension/accel	/jointset/patellofemoral_l/patellar_flexion_l/accel	/jointset/knee_l/knee_flexion_l/accel	/jointset/knee_l/knee_adduction_l/accel	/jointset/knee_l/knee_rotation_l/accel	/jointset/ankle_l/ankle_angle_l/accel	/jointset/subtalar_l/subtalar_angle_l/accel	gamma_cid13_p0	gamma_cid13_p1	gamma_cid13_p2	gamma_cid13_p3	gamma_cid13_p4	gamma_cid13_p5	gamma_cid14_p0
1.5	-0.387738876123516	-0.03308160953025979	0.7967147452702145	0.9881497921668018	-0.42208999368565	-0.3106421304850157	-0.2195227596630805	0.5772191468285306	0.5772191468285909	-0.170189277034473	-0.1638031143941048	0.008006639147148713	-0.06716826355807266	0.7500137983206051	0.3315910838022214	0.3751649470487358	-2.132051070883011	0.2173217399266268	-0.5686667857901756	0.3265563736313634	-1.400889599575342	-1.400889599575364	-0.01280868223416393	0.0668302755994532	-0.1014684577600558	0.1918611955818265	-0.1836548408444146	0.02408232500385114	-0.003881376929643808	-0.151725065915026	0.05208892743461242	0.05284944922987782	0.1731842301112559	-16.65259263577552	-23.55731358783118	7.441073246828514	-5.085848880648914	-527.4009959973158	-70.29818355237948	-35.58367064549702	0.4826725432344052	0.5616787213651383	-0.3089524933910004	-1.157501196171998	0.5095689338857514	-0.09340875371205089	1.31391485603947	-0.9403829609916668	-0.9403829609916737	0.02138859014218895	0.2097552327453961	-0.07592011546643004	0.5093310724133662	3.161941765793625e-09	6.407720146460526e-07	2.166448524112896e-08	1.818013188862747e-07	1.104783630159881e-07	-6.306466286770258e-08	9.604681503451022e-08
1.51	-0.3802150237303096	-0.02973797488633561	0.8004501971436664	0.9667734206997302	-0.419892107658441	-0.3163339257931633	-0.216192563785898	0.5631652854706248	0.5631652854706704	-0.1703169962465995	-0.1631258917354704	0.00698824388311245	-0.06522501274177002	0.754650111410638	0.337092235044302	0.3718486970123471	-2.142921904939513	0.2222295900161917	-0.5696145710010085	0.3394399205525574	-1.409685117156165	-1.409685117156057	-0.01273699114310504	0.06860656077594635	-0.1021904604895464	0.1967705719043767	-0.1775569244433429	0.02306485368502558	-0.00398991451160447	-0.1501029540536859	0.051323046999634	0.05144552363144787	0.1683445897368872	-16.73018702297644	-22.99434147002017	7.420241625702974	-4.801362752182556	-524.4395907194152	-70.29450230133446	-36.0885504037368	0.4381094609729394	0.5378299027783565	-0.3544474428472952	-1.00669226625836	0.4773987938066819	-0.08372816574436096	1.269142422254504	-0.8195222784795062	-0.8195222784600534	-8.850578961243707e-05	0.1603776519166741	-0.06730994084371353	0.4788709582015386	-7.108988353852916e-10	6.666208739927748e-07	2.704724486409553e-08	1.874364620300812e-07	1.148166628948269e-07	-5.635023969980683e-08	9.650861467244385e-08
1.52	-0.372648008452386	-0.02634062941456084	0.8041501892799374	0.9452973773409198	-0.4176459419808736	-0.3220328519056149	-0.2127348188770843	0.5490293917125404	0.5490293917125719	-0.1704440281226879	-0.1624311437267099	0.005963234673950395	-0.06323324215303673	0.7586463752640806	0.3423332493723394	0.3680729996125818	-2.151985449230772	0.2269776699983503	-0.5700929466508593	0.3520661799575569	-1.417296079611063	-1.417296079610826	-0.01267121502714053	0.07033534562505583	-0.1027912467851703	0.2015651500679547	-0.1714590080422686	0.02204738236619773	-0.004098452093553227	-0.1484808421923486	0.05055716656465359	0.05004159803301431	0.1635049493625229	-16.81723793909665	-22.43069752796157	7.400426998556529	-4.500213256605672	-521.6109257196379	-70.31836793665528	-36.57398593199003	0.3546626959163832	0.5096513385564767	-0.4008419660663227	-0.7960432431231637	0.4776149124044796	0.0004731584843867681	1.262457352800554	-0.70347193580681	-0.7034719358068166	0.02020559512331171	0.2002551672686666	-0.0516768286930596	0.4863714406189412	-4.508918451870266e-09	6.890659287640945e-07	3.169941783284668e-08	1.918513576153973e-07	1.193582143460458e-07	-4.927266844614805e-08	9.648440263716887e-08
1.53	-0.3650442413796177	-0.02289223495663264	0.8078101679443503	0.9237397819145643	-0.4153531274206057	-0.3277343212622592	-0.2091522558438912	0.5348233920648645	0.5348233920648583	-0.1705704007172101	-0.1617194390273989	0.004932837076077286	-0.06119412602078091	0.7619957102146699	0.3472954474102953	0.3638496156051493	-2.159220563451652	0.2315548076731269	-0.5701269298879151	0.3643907177729136	-1.423695607462692	-1.423695607462701	-0.01260199946089286	0.07199255248331859	-0.1032665677480409	0.2062358070147626	-0.165292896480763	0.02091825066606896	-0.004235221055806236	-0.1468614584633842	0.04984784966356878	0.04856007421364762	0.1585790380290898	-16.8888085634049	-21.83741912370278	7.377436447051108	-4.17994196176462	-518.7729411188864	-70.29470036955969	-37.03738289670392	0.308350782489343	0.4820141438155963	-0.4440289352715934	-0.6403028255389818	0.4430786291723722	0.005844769255633739	1.209095659662657	-0.5769759715092593	-0.5769759715462587	0.0006083410269040821	0.1464634522747421	-0.04219411208896288	0.4539550748289625	-8.227440772117927e-09	7.078944411740487e-07	3.557534248149393e-08	1.949697401698175e-07	1.241157205929187e-07	-4.180925235136604e-08	9.594380319910977e-08
1.54	-0.3574103245797718	-0.01939571649684477	0.8114257243052508	0.9021192238832071	-0.4130154783967584	-0.3334338946844629	-0.2054481186997924	0.520559640586339	0.5205596405862914	-0.1706960153953396	-0.1609915602580713	0.003898339392174423	-0.05910899486843356	0.7646763206796252	0.3519580497442711	0.3591885389101269	-2.164577970231275	0.2359445627142282	-0.5697137597627228	0.3763810021386474	-1.428846445781055	-1.428846445781311	-0.01251963174858886	0.07357015962836802	-0.1036112639911073	0.2107681540862607	-0.1591267849192498	0.01978911896593994	-0.00437199001805883	-0.1452420747344197	0.04913853276248308	0.04707855039428021	0.1536531266956645	-16.97038451783525	-21.24321607114233	7.355243580037892	-3.839615671181809	-516.071798895248	-70.29832222942215	-37.47630597187005	0.2209177987895737	0.4497321977604486	-0.488380503584302	-0.4205017548718371	0.4401383856693887	0.08990383093402712	1.195606662875955	-0.4537340291537186	-0.4537340291537126	0.02283602433457698	0.1843352246260015	-0.02555188473220714	0.4587094655570023	-4.743195526718029e-09	7.096686562304674e-07	1.521072206234183e-08	1.883970629492686e-07	1.407908891481103e-07	-3.455407906258138e-08	9.700225931897862e-08
1.55	-0.3497529394510905	-0.01585413088699143	0.814992551435899	0.8804543913832433	-0.4106349209127126	-0.3391269475897376	-0.2016259449118547	0.5062504987938828	0.5062504987938556	-0.170820945663487	-0.1602481204959353	0.002860968369643033	-0.05697932963770837	0.7666845539141883	0.3563027465526921	0.3541083897566978	-2.168065447544349	0.2401315480568574	-0.568823250329224	0.3879855592646472	-1.432765059719808	-1.432765059719866	-0.01246435479504283	0.07510283015590208	-0.1038401002129706	0.2151380324199524	-0.1529082086076465	0.01855373115006272	-0.004541955300115561	-0.1436841478102095	0.04854227632852137	0.04551531117556826	0.1486594080009327	-17.02287806400798	-20.61992616808492	7.329909577382796	-3.489043321946565	-513.4271394535127	-70.25381889528016	-37.89188382822823	0.1733364111712119	0.4184217321239763	-0.5280691227003008	-0.2644235482368531	0.4025644626399619	0.0997470813041223	1.132650809806645	-0.3284174306455622	-0.3284174306158327	-0.002696439239995469	0.1354381388636789	-0.01811440059412943	0.4219976395590718	7.039890609536205e-09	6.917933547708571e-07	-3.308322202188188e-08	1.706585994662559e-07	1.711972773194077e-07	-2.753883770244586e-08	9.99031055381991e-08
1.56	-0.3420789599249871	-0.01227078164710567	0.8185065296747174	0.858764373544407	-0.4082135764044245	-0.3448088708843289	-0.1976897714381878	0.491908672391159	0.4919086723911509	-0.1709452371561214	-0.1594898129941116	0.001821996002956653	-0.0548067914991895	0.7679952001640127	0.3603107757507568	0.3486187605441523	-2.16961503800589	0.2441019675626985	-0.5674878376258725	0.3991809392844332	-1.435383367834941	-1.435383367834801	-0.0123918766456815	0.07654370756529891	-0.1039315328220632	0.2193427356449969	-0.1466896322960405	0.01731834333418212	-0.004711920582187401	-0.1421262208859984	0.04794601989455774	0.04395207195685183	0.1436656893062062	-17.08295408066552	-19.99601238151785	7.305280269039208	-3.129463453570668	-510.8833842552646	-70.23177921182267	-38.28480254763839	0.08140040184179521	0.3823986756892088	-0.5702765154075776	-0.0329243845652747	0.3968252183117909	0.1788844849045383	1.113771241633184	-0.1936728644299098	-0.1936728644299064	0.02627626349763418	0.1659766009985532	0.001928837821941923	0.4256744438275559	1.592285829353062e-08	6.759442192574073e-07	-7.076801879884491e-08	1.55808414599873e-07	1.970776219889944e-07	-2.004747519858206e-08	1.014468334266416e-07
